<svg xmlns="http://www.w3.org/2000/svg" width="840" height="420" viewBox="0 0 840 420">
<rect width="100%" height="100%" fill="#ffffff"/>
<style>text{font-family:Arial,sans-serif;fill:#222} .axis{stroke:#444;stroke-width:1.2}.grid{stroke:#ddd;stroke-width:1}.label{font-size:13px}.title{font-size:18px;font-weight:700}.legend{font-size:13px}</style>
<text class="title" x="70" y="24">2-node G7e EFA NCCL all_reduce bus bandwidth</text>
<line class="grid" x1="70" y1="362.0" x2="812" y2="362.0"/>
<text class="label" x="60" y="366.0" text-anchor="end">0.0</text>
<line class="grid" x1="70" y1="280.0" x2="812" y2="280.0"/>
<text class="label" x="60" y="284.0" text-anchor="end">5.0</text>
<line class="grid" x1="70" y1="198.0" x2="812" y2="198.0"/>
<text class="label" x="60" y="202.0" text-anchor="end">9.9</text>
<line class="grid" x1="70" y1="116.0" x2="812" y2="116.0"/>
<text class="label" x="60" y="120.0" text-anchor="end">14.9</text>
<line class="grid" x1="70" y1="34.0" x2="812" y2="34.0"/>
<text class="label" x="60" y="38.0" text-anchor="end">19.9</text>
<line class="grid" x1="70.0" y1="34" x2="70.0" y2="362"/>
<text class="label" x="70.0" y="386" text-anchor="middle">8B</text>
<line class="grid" x1="295.8" y1="34" x2="295.8" y2="362"/>
<text class="label" x="295.8" y="386" text-anchor="middle">1KiB</text>
<line class="grid" x1="618.4" y1="34" x2="618.4" y2="362"/>
<text class="label" x="618.4" y="386" text-anchor="middle">1MiB</text>
<line class="grid" x1="812.0" y1="34" x2="812.0" y2="362"/>
<text class="label" x="812.0" y="386" text-anchor="middle">64MiB</text>
<line class="axis" x1="70" y1="362" x2="812" y2="362"/>
<line class="axis" x1="70" y1="34" x2="70" y2="362"/>
<text class="label" x="420.0" y="406" text-anchor="middle">message size</text>
<text class="label" transform="translate(18 210.0) rotate(-90)" text-anchor="middle">bus bandwidth (GB/s)</text>
<polyline fill="none" stroke="#1f77b4" stroke-width="2.5" points="70.0,362.0 102.3,362.0 134.5,362.0 166.8,362.0 199.0,362.0 231.3,361.8 263.6,361.8 295.8,361.5 328.1,361.2 360.3,361.0 392.6,359.2 424.9,357.2 457.1,353.4 489.4,350.1 521.7,344.0 553.9,336.6 586.2,335.4 618.4,266.7 650.7,204.9 683.0,144.5 715.2,120.2 747.5,103.8 779.7,89.6 812.0,75.4"/>
<polyline fill="none" stroke="#d62728" stroke-width="2.5" points="70.0,362.0 102.3,362.0 134.5,362.0 166.8,362.0 199.0,362.0 231.3,362.0 263.6,361.8 295.8,361.5 328.1,361.2 360.3,360.3 392.6,359.5 424.9,357.9 457.1,351.1 489.4,348.8 521.7,345.5 553.9,336.7 586.2,335.1 618.4,269.5 650.7,207.2 683.0,150.7 715.2,113.7 747.5,98.7 779.7,84.5 812.0,69.1"/>
<circle cx="70.0" cy="362.0" r="3" fill="#1f77b4"/>
<circle cx="70.0" cy="362.0" r="3" fill="#d62728"/>
<circle cx="102.3" cy="362.0" r="3" fill="#1f77b4"/>
<circle cx="102.3" cy="362.0" r="3" fill="#d62728"/>
<circle cx="134.5" cy="362.0" r="3" fill="#1f77b4"/>
<circle cx="134.5" cy="362.0" r="3" fill="#d62728"/>
<circle cx="166.8" cy="362.0" r="3" fill="#1f77b4"/>
<circle cx="166.8" cy="362.0" r="3" fill="#d62728"/>
<circle cx="199.0" cy="362.0" r="3" fill="#1f77b4"/>
<circle cx="199.0" cy="362.0" r="3" fill="#d62728"/>
<circle cx="231.3" cy="361.8" r="3" fill="#1f77b4"/>
<circle cx="231.3" cy="362.0" r="3" fill="#d62728"/>
<circle cx="263.6" cy="361.8" r="3" fill="#1f77b4"/>
<circle cx="263.6" cy="361.8" r="3" fill="#d62728"/>
<circle cx="295.8" cy="361.5" r="3" fill="#1f77b4"/>
<circle cx="295.8" cy="361.5" r="3" fill="#d62728"/>
<circle cx="328.1" cy="361.2" r="3" fill="#1f77b4"/>
<circle cx="328.1" cy="361.2" r="3" fill="#d62728"/>
<circle cx="360.3" cy="361.0" r="3" fill="#1f77b4"/>
<circle cx="360.3" cy="360.3" r="3" fill="#d62728"/>
<circle cx="392.6" cy="359.2" r="3" fill="#1f77b4"/>
<circle cx="392.6" cy="359.5" r="3" fill="#d62728"/>
<circle cx="424.9" cy="357.2" r="3" fill="#1f77b4"/>
<circle cx="424.9" cy="357.9" r="3" fill="#d62728"/>
<circle cx="457.1" cy="353.4" r="3" fill="#1f77b4"/>
<circle cx="457.1" cy="351.1" r="3" fill="#d62728"/>
<circle cx="489.4" cy="350.1" r="3" fill="#1f77b4"/>
<circle cx="489.4" cy="348.8" r="3" fill="#d62728"/>
<circle cx="521.7" cy="344.0" r="3" fill="#1f77b4"/>
<circle cx="521.7" cy="345.5" r="3" fill="#d62728"/>
<circle cx="553.9" cy="336.6" r="3" fill="#1f77b4"/>
<circle cx="553.9" cy="336.7" r="3" fill="#d62728"/>
<circle cx="586.2" cy="335.4" r="3" fill="#1f77b4"/>
<circle cx="586.2" cy="335.1" r="3" fill="#d62728"/>
<circle cx="618.4" cy="266.7" r="3" fill="#1f77b4"/>
<circle cx="618.4" cy="269.5" r="3" fill="#d62728"/>
<circle cx="650.7" cy="204.9" r="3" fill="#1f77b4"/>
<circle cx="650.7" cy="207.2" r="3" fill="#d62728"/>
<circle cx="683.0" cy="144.5" r="3" fill="#1f77b4"/>
<circle cx="683.0" cy="150.7" r="3" fill="#d62728"/>
<circle cx="715.2" cy="120.2" r="3" fill="#1f77b4"/>
<circle cx="715.2" cy="113.7" r="3" fill="#d62728"/>
<circle cx="747.5" cy="103.8" r="3" fill="#1f77b4"/>
<circle cx="747.5" cy="98.7" r="3" fill="#d62728"/>
<circle cx="779.7" cy="89.6" r="3" fill="#1f77b4"/>
<circle cx="779.7" cy="84.5" r="3" fill="#d62728"/>
<circle cx="812.0" cy="75.4" r="3" fill="#1f77b4"/>
<circle cx="812.0" cy="69.1" r="3" fill="#d62728"/>
<rect x="612" y="36" width="185" height="54" fill="#fff" stroke="#ccc"/>
<line x1="628" y1="55" x2="664" y2="55" stroke="#1f77b4" stroke-width="2.5"/><text class="legend" x="674" y="59">out-of-place</text>
<line x1="628" y1="77" x2="664" y2="77" stroke="#d62728" stroke-width="2.5"/><text class="legend" x="674" y="81">in-place</text>
</svg>
