<svg xmlns="http://www.w3.org/2000/svg" width="760" height="360" viewBox="0 0 760 360">
<style>text{font-family:Arial,sans-serif;fill:#222}.title{font-size:18px;font-weight:700}.axis{font-size:12px}.label{font-size:13px}.value{font-size:12px;font-weight:700}</style>
<rect width="100%" height="100%" fill="#fff"/>
<text class="title" x="80" y="24">2-node G7e DDP training wall-clock</text>
<line x1="80" y1="290" x2="700" y2="290" stroke="#444"/>
<line x1="80" y1="40" x2="80" y2="290" stroke="#444"/>
<line x1="76" y1="290.0" x2="700" y2="290.0" stroke="#ddd"/>
<text class="axis" x="12" y="294.0">0.0s</text>
<line x1="76" y1="240.0" x2="700" y2="240.0" stroke="#ddd"/>
<text class="axis" x="12" y="244.0">0.3s</text>
<line x1="76" y1="190.0" x2="700" y2="190.0" stroke="#ddd"/>
<text class="axis" x="12" y="194.0">0.5s</text>
<line x1="76" y1="140.0" x2="700" y2="140.0" stroke="#ddd"/>
<text class="axis" x="12" y="144.0">0.8s</text>
<line x1="76" y1="90.0" x2="700" y2="90.0" stroke="#ddd"/>
<text class="axis" x="12" y="94.0">1.1s</text>
<line x1="76" y1="40.0" x2="700" y2="40.0" stroke="#ddd"/>
<text class="axis" x="12" y="44.0">1.4s</text>
<rect x="170" y="266.4" width="80" height="23.6" fill="#1f77b4"/>
<text class="value" x="170" y="258.4">0.13s</text>
<text class="label" x="182" y="314">efa</text>
<rect x="340" y="40.0" width="80" height="250.0" fill="#d62728"/>
<text class="value" x="340" y="32.0">1.37s</text>
<text class="label" x="352" y="314">socket</text>
<text class="axis" x="80" y="340">Param payload: 256 MiB/rank, steps: 12</text>
</svg>
